<svg id="armchair" xmlns="http://www.w3.org/2000/svg" width="31.376" height="31.376" viewBox="0 0 31.376 31.376">
  <g id="Group_52" data-name="Group 52">
    <g id="Group_45" data-name="Group 45" transform="translate(17.114 11.409)">
      <circle id="Ellipse_1" data-name="Ellipse 1" cx="0.713" cy="0.713" r="0.713" fill="#fac112"/>
    </g>
    <g id="Group_46" data-name="Group 46" transform="translate(19.967 11.409)">
      <circle id="Ellipse_2" data-name="Ellipse 2" cx="0.713" cy="0.713" r="0.713" fill="#fac112"/>
    </g>
    <g id="Group_47" data-name="Group 47" transform="translate(17.114 14.262)">
      <circle id="Ellipse_3" data-name="Ellipse 3" cx="0.713" cy="0.713" r="0.713" fill="#fac112"/>
    </g>
    <g id="Group_48" data-name="Group 48" transform="translate(19.967 14.262)">
      <circle id="Ellipse_4" data-name="Ellipse 4" cx="0.713" cy="0.713" r="0.713" fill="#fac112"/>
    </g>
    <g id="Group_49" data-name="Group 49" transform="translate(10.696 20.68)">
      <path id="Path_44" data-name="Path 44" d="M29.975,29H17.139A2.142,2.142,0,0,0,15,31.139v2.852a.713.713,0,0,0,.713.713H31.4a.713.713,0,0,0,.713-.713V31.139A2.142,2.142,0,0,0,29.975,29Zm.713,4.279H16.426V31.139a.714.714,0,0,1,.713-.713H29.975a.714.714,0,0,1,.713.713Z" transform="translate(-15 -29)" fill="#fac112"/>
    </g>
    <g id="Group_50" data-name="Group 50" transform="translate(7.131 7.131)">
      <path id="Path_45" data-name="Path 45" d="M32.106,17.131H30.68V12.139A2.142,2.142,0,0,0,28.54,10H15.7a2.142,2.142,0,0,0-2.139,2.139v4.992H12.139A2.142,2.142,0,0,0,10,19.27V31.393a2.142,2.142,0,0,0,2.139,2.139h1.426a.713.713,0,0,0,.713.713h2.852a.713.713,0,0,0,.713-.713H26.4a.713.713,0,0,0,.713.713h2.852a.713.713,0,0,0,.713-.713h1.426a2.142,2.142,0,0,0,2.139-2.139V19.27A2.142,2.142,0,0,0,32.106,17.131Zm.713,14.262a.714.714,0,0,1-.713.713H12.139a.714.714,0,0,1-.713-.713V19.27a.714.714,0,0,1,.713-.713h2.139a.714.714,0,0,1,.713.713v2.139a.713.713,0,0,0,1.426,0V19.27a2.136,2.136,0,0,0-1.451-2.016.653.653,0,0,0,.025-.123V12.139a.714.714,0,0,1,.713-.713H28.54a.714.714,0,0,1,.713.713v5.123a2.136,2.136,0,0,0-1.426,2.008v2.139a.713.713,0,0,0,1.426,0V19.27a.714.714,0,0,1,.713-.713h2.139a.714.714,0,0,1,.713.713Z" transform="translate(-10 -10)" fill="#fac112"/>
    </g>
    <g id="Group_51" data-name="Group 51">
      <path id="Path_46" data-name="Path 46" d="M6.418,29.95a1.016,1.016,0,0,1-.713-.3l-.418-.418a2.319,2.319,0,0,0-1.008-.578V11.409h.781A2.074,2.074,0,0,0,7.131,9.338a1.994,1.994,0,0,0-.01-.206L6.414,2.068a.713.713,0,0,0-.71-.642H4.279V.713a.713.713,0,0,0-1.426,0v.713H1.426a.713.713,0,0,0-.71.642L.01,9.131A2.007,2.007,0,0,0,0,9.338a2.074,2.074,0,0,0,2.072,2.072h.781v17.25a2.319,2.319,0,0,0-1.008.578l-.418.418a1.016,1.016,0,0,1-.713.3.713.713,0,1,0,0,1.426,2.417,2.417,0,0,0,1.721-.713l.418-.418a1.044,1.044,0,0,1,1.426,0l.418.418a2.417,2.417,0,0,0,1.721.713.713.713,0,1,0,0-1.426ZM1.429,9.274l.642-6.421H5.059L5.7,9.274l0,.064a.646.646,0,0,1-.645.645H2.072A.659.659,0,0,1,1.429,9.274Z" fill="#fac112"/>
    </g>
  </g>
</svg>
