<svg xmlns="http://www.w3.org/2000/svg" width="16.356" height="16.356" viewBox="0 0 16.356 16.356">
  <path id="facebook-square-brands" d="M16.356,33.752V46.6A1.753,1.753,0,0,1,14.6,48.356H11.49v-6.47H13.7l.318-2.468H11.49V37.842c0-.716.2-1.2,1.223-1.2H14.02V34.435a17.572,17.572,0,0,0-1.906-.1A2.976,2.976,0,0,0,8.938,37.6v1.822H6.718V41.89H8.941v6.466H1.752A1.753,1.753,0,0,1,0,46.6V33.752A1.753,1.753,0,0,1,1.752,32H14.6A1.753,1.753,0,0,1,16.356,33.752Z" transform="translate(0 -32)" fill="#222e46"/>
</svg>
