<svg xmlns="http://www.w3.org/2000/svg" width="20.231" height="27.083" viewBox="0 0 20.231 27.083">
  <g id="Group_134" data-name="Group 134" transform="translate(-1755.132 -7801.784)">
    <g id="Group_92" data-name="Group 92" transform="translate(1755.732 7809.729)">
      <path id="Path_79" data-name="Path 79" d="M-151.156-134.729a1.581,1.581,0,0,1-1.581,1.581H-168.6a1.581,1.581,0,0,1-1.581-1.581V-146.6c0-.873.156-1.235,1.581-1.581l15.862-3.422c1.457-.349,1.581.454,1.581,1.328Z" transform="translate(170.18 151.686)" fill="none" stroke="#222e46" stroke-linecap="round" stroke-linejoin="round" stroke-width="1.2"/>
    </g>
    <g id="Group_93" data-name="Group 93" transform="translate(1760.25 7802.384)">
      <path id="Path_80" data-name="Path 80" d="M-79.482-37.208a1.279,1.279,0,0,1-1.279,1.279h-7.445a1.279,1.279,0,0,1-1.279-1.279v-3.4a1.279,1.279,0,0,1,1.279-1.279h7.445a1.279,1.279,0,0,1,1.279,1.279Z" transform="translate(89.485 41.891)" fill="none" stroke="#222e46" stroke-linecap="round" stroke-linejoin="round" stroke-width="1.2"/>
    </g>
    <g id="Group_94" data-name="Group 94" transform="translate(1755.739 7804.173)">
      <path id="Path_81" data-name="Path 81" d="M-151.156-27.051v-1.823a1.581,1.581,0,0,0-1.581-1.581h-2.929v2.894a1.279,1.279,0,0,1-1.279,1.279h-7.445a1.279,1.279,0,0,1-1.279-1.279v-2.894H-168.6a1.581,1.581,0,0,0-1.581,1.581v5.927" transform="translate(170.18 30.456)" fill="none" stroke="#222e46" stroke-linecap="round" stroke-linejoin="round" stroke-width="1.2"/>
    </g>
    <g id="Group_95" data-name="Group 95" transform="translate(1756.099 7809.755)">
      <path id="Path_82" data-name="Path 82" d="M-48.254-70.841a1.806,1.806,0,0,1-2.413-.419l-3.661-4.181c0-.419.1-.552,1.511-.9L-37.077-79.7c.664-.163.983.026.428.432Z" transform="translate(54.327 79.757)" fill="none" stroke="#222e46" stroke-linecap="round" stroke-linejoin="round" stroke-width="1.2"/>
    </g>
  </g>
</svg>
