<svg xmlns="http://www.w3.org/2000/svg" xmlns:xlink="http://www.w3.org/1999/xlink" width="18.393" height="41.923" viewBox="0 0 18.393 41.923">
  <defs>
    <clipPath id="clip-path">
      <path id="Path_65" data-name="Path 65" d="M9.207-282.512a.848.848,0,0,0-.848.848h0v18.726a5.572,5.572,0,0,1-4.668-4.65H4.709a.848.848,0,0,0,.848-.848h0a.848.848,0,0,0-.848-.848H.848a.848.848,0,0,0-.848.848H0a.848.848,0,0,0,.848.848H1.98a7.269,7.269,0,0,0,6.378,6.36h0v16.258a4.971,4.971,0,0,0-3.838,3.227h0a.848.848,0,0,0,.106.772h0a.848.848,0,0,0,.691.36h0l7.761.022h0a.848.848,0,0,0,.691-.356h0a.848.848,0,0,0,.11-.771h0a4.966,4.966,0,0,0-3.827-3.251h0v-7.923a7.269,7.269,0,0,0,6.358-6.357h1.132a.848.848,0,0,0,.848-.848h0a.848.848,0,0,0-.848-.848H13.684a.848.848,0,0,0-.848.848h0a.848.848,0,0,0,.848.848H14.7a5.573,5.573,0,0,1-4.647,4.647h0v-16.388a7.268,7.268,0,0,0,6.381-6.592h1.109a.848.848,0,0,0,.848-.848h0a.848.848,0,0,0-.848-.848H13.684a.848.848,0,0,0-.848.848h0a.848.848,0,0,0,.848.848h1.049a5.571,5.571,0,0,1-4.678,4.881h0v-8.965A.848.848,0,0,0,9.207-282.512ZM6.8-242.3A3.272,3.272,0,0,1,9.2-243.347h0a3.268,3.268,0,0,1,2.407,1.058h0Z" transform="translate(0 282.512)" fill="#222e46"/>
    </clipPath>
  </defs>
  <g id="Group_127" data-name="Group 127" transform="translate(0 282.512)">
    <g id="Group_73" data-name="Group 73" transform="translate(0 -282.512)" clip-path="url(#clip-path)">
      <g id="Group_72" data-name="Group 72" transform="translate(35.869 32.536) rotate(151.758)">
        <path id="Path_64" data-name="Path 64" d="M16.2,45.636,0,36.932,19.838,0l16.2,8.7Z" transform="translate(0 0)" fill="#222e46"/>
      </g>
    </g>
  </g>
</svg>
