<svg xmlns="http://www.w3.org/2000/svg" xmlns:xlink="http://www.w3.org/1999/xlink" width="20.935" height="33.595" viewBox="0 0 20.935 33.595">
  <defs>
    <clipPath id="clip-path">
      <path id="Path_75" data-name="Path 75" d="M0-339.918H20.935v33.6H0Z" transform="translate(0 339.918)" fill="#222e46"/>
    </clipPath>
  </defs>
  <g id="Group_133" data-name="Group 133" transform="translate(0 339.918)">
    <g id="Group_86" data-name="Group 86" transform="translate(0 -339.918)" clip-path="url(#clip-path)">
      <g id="Group_85" data-name="Group 85" transform="translate(0 0)">
        <path id="Path_74" data-name="Path 74" d="M-64.257-190.826c-.7-.138-1.4-.232-2.08-.418a6.655,6.655,0,0,1-4.964-6.533c0-2.256,0-4.513,0-6.769,0-.082,0-.165,0-.247a.855.855,0,0,1,.8-.849.844.844,0,0,1,.876.824c.03.572.007,1.148.007,1.782h.581q4.2,0,8.4,0A3,3,0,0,1-60.1-203a.768.768,0,0,1,.662.754.764.764,0,0,1-.557.835,2.1,2.1,0,0,1-.633.069q-4.2.007-8.4,0h-.656a38.983,38.983,0,0,0,.249,4.856,4.508,4.508,0,0,0,3.308,3.537,8.459,8.459,0,0,0,5.012.112,4.723,4.723,0,0,0,3.535-4.545c.075-2.188.017-4.38.015-6.57a1.1,1.1,0,0,0-.054-.2h-.513q-4.348,0-8.7,0c-.449,0-.822-.1-.99-.559-.214-.594.2-1.121.909-1.127,1.515-.011,3.03-.005,4.545-.005q2.693,0,5.385,0c.809,0,1.1.292,1.106,1.1,0,1.282,0,2.563,0,3.848a4.523,4.523,0,0,0,3.662-3.355,4.669,4.669,0,0,0-2.868-5.524,4.668,4.668,0,0,0-5.8,2.261c-.03.059-.056.119-.086.178-.281.562-.727.76-1.195.531a.85.85,0,0,1-.334-1.228,6.135,6.135,0,0,1,4.248-3.538,6.338,6.338,0,0,1,7.716,4.784,6.331,6.331,0,0,1-4.939,7.574c-.126.026-.25.061-.332.081a25.938,25.938,0,0,1-.264,2.825,6.474,6.474,0,0,1-6.016,5.365c-.307.029-.471.084-.47.453.013,3.426.009,6.851.01,10.277,0,.1.016.193.029.337.188.009.363.023.537.024.972,0,1.943,0,2.915,0,.609,0,1,.354.995.862s-.378.82-.97.821q-4.274.006-8.547,0c-.62,0-1-.338-.994-.848s.4-.832,1.02-.836c1.084-.007,2.168,0,3.287,0Z" transform="translate(71.305 211.755)" fill="#222e46" fill-rule="evenodd"/>
      </g>
    </g>
  </g>
</svg>
