<svg xmlns="http://www.w3.org/2000/svg" xmlns:xlink="http://www.w3.org/1999/xlink" width="302.833" height="46" viewBox="0 0 302.833 46">
  <defs>
    <clipPath id="clip-path">
      <path id="Path_93" data-name="Path 93" d="M0-5.215H302.833v-46H0Z" transform="translate(0 51.215)" fill="none"/>
    </clipPath>
  </defs>
  <g id="Group_107" data-name="Group 107" clip-path="url(#clip-path)">
    <g id="Group_97" data-name="Group 97" transform="translate(0 0.454)">
      <path id="Path_83" data-name="Path 83" d="M-1.708,0A14.519,14.519,0,0,1,4.115,1.169,15.277,15.277,0,0,1,8.9,4.416l-3.55,3.55A9.628,9.628,0,0,0-1.708,5.023,9.788,9.788,0,0,0-5.6,5.8,10.049,10.049,0,0,0-8.787,7.945a10.376,10.376,0,0,0-2.166,3.181,9.556,9.556,0,0,0-.8,3.9,9.553,9.553,0,0,0,.8,3.9A10.586,10.586,0,0,0-8.809,22.1a9.744,9.744,0,0,0,3.182,2.143,9.951,9.951,0,0,0,3.919.779,9.793,9.793,0,0,0,7.057-2.9L8.9,25.631a15.279,15.279,0,0,1-4.785,3.248,14.534,14.534,0,0,1-5.823,1.169,14.426,14.426,0,0,1-5.844-1.191,15.571,15.571,0,0,1-4.784-3.225,15.14,15.14,0,0,1-3.248-4.762,14.448,14.448,0,0,1-1.19-5.845,14.392,14.392,0,0,1,1.19-5.78,15.325,15.325,0,0,1,3.248-4.806A15.414,15.414,0,0,1-7.552,1.191,14.456,14.456,0,0,1-1.708,0" transform="translate(16.774 0)" fill="#222e46"/>
    </g>
    <g id="Group_98" data-name="Group 98" transform="translate(32.355 0.454)">
      <path id="Path_84" data-name="Path 84" d="M-1.7-.569A9.775,9.775,0,0,0-8.8,2.375a9.7,9.7,0,0,0-2.9,7.058,9.846,9.846,0,0,0,2.9,7.1,9.844,9.844,0,0,0,7.1,2.9,9.7,9.7,0,0,0,7.057-2.9A9.772,9.772,0,0,0,8.3,9.433,9.63,9.63,0,0,0,5.354,2.375,9.631,9.631,0,0,0-1.7-.569m0-5.023A14.375,14.375,0,0,1,8.9-1.176,14.4,14.4,0,0,1,13.363,9.433,14.214,14.214,0,0,1,8.9,20.039,14.375,14.375,0,0,1-1.7,24.456a14.372,14.372,0,0,1-10.607-4.416A14.371,14.371,0,0,1-16.726,9.433,14.465,14.465,0,0,1-12.311-1.176,14.28,14.28,0,0,1-1.7-5.592" transform="translate(16.726 5.592)" fill="#222e46"/>
    </g>
    <g id="Group_99" data-name="Group 99" transform="translate(70.865 -0.001)">
      <path id="Path_85" data-name="Path 85" d="M-.552-1.34V17.019H-5.423V-13.158l14.7,14.7,14.74-14.7V17.019H19.059V-1.34L9.275,8.487Z" transform="translate(5.423 13.158)" fill="#222e46"/>
    </g>
    <g id="Group_100" data-name="Group 100" transform="translate(112.851 0.78)">
      <path id="Path_86" data-name="Path 86" d="M-2.218,0V4.914h-14.7v9.742H-3.391v4.955H-16.917V29.4h-4.87V0Z" transform="translate(21.787)" fill="#222e46"/>
    </g>
    <g id="Group_101" data-name="Group 101" transform="translate(140.84 0.454)">
      <path id="Path_87" data-name="Path 87" d="M-1.7-.569A9.773,9.773,0,0,0-8.8,2.375a9.7,9.7,0,0,0-2.9,7.058,9.843,9.843,0,0,0,2.9,7.1,9.842,9.842,0,0,0,7.1,2.9,9.7,9.7,0,0,0,7.057-2.9A9.773,9.773,0,0,0,8.3,9.433,9.631,9.631,0,0,0,5.354,2.375,9.63,9.63,0,0,0-1.7-.569m0-5.023A14.379,14.379,0,0,1,8.905-1.176,14.4,14.4,0,0,1,13.363,9.433,14.216,14.216,0,0,1,8.905,20.039,14.379,14.379,0,0,1-1.7,24.456a14.374,14.374,0,0,1-10.607-4.416A14.371,14.371,0,0,1-16.726,9.433,14.465,14.465,0,0,1-12.311-1.176,14.282,14.282,0,0,1-1.7-5.592" transform="translate(16.726 5.592)" fill="#222e46"/>
    </g>
    <g id="Group_102" data-name="Group 102" transform="translate(180.232 0.78)">
      <path id="Path_88" data-name="Path 88" d="M-1.666-.557h-9.827V9.185l9.827.042a4.681,4.681,0,0,0,3.43-1.441A4.729,4.729,0,0,0,3.205,4.315,4.682,4.682,0,0,0,1.764.884,4.684,4.684,0,0,0-1.666-.557m4.15,24.483-5.676-9.786h-8.3v9.786h-4.871v-29.4h14.7a9.424,9.424,0,0,1,6.9,2.88,9.424,9.424,0,0,1,2.88,6.905A9.506,9.506,0,0,1,6.381,9.864,9.479,9.479,0,0,1,2.06,13.379L8.118,23.926Z" transform="translate(16.364 5.471)" fill="#222e46"/>
    </g>
    <g id="Group_103" data-name="Group 103" transform="translate(213.185 0.78)">
      <path id="Path_89" data-name="Path 89" d="M0,0H24.525V4.914H14.739V29.4H9.825V4.914H0Z" fill="#222e46"/>
    </g>
    <g id="Group_104" data-name="Group 104" transform="translate(247.558 0.78)">
      <path id="Path_90" data-name="Path 90" d="M-2.218,0V4.914h-14.7v7.37h14.7v4.872h-14.7v7.327h14.7V29.4H-21.787V0Z" transform="translate(21.787)" fill="#222e46"/>
    </g>
    <g id="Group_105" data-name="Group 105" transform="translate(278.351 0.78)">
      <path id="Path_91" data-name="Path 91" d="M-1.666-.557h-9.827V9.185l9.827.042A4.684,4.684,0,0,0,1.765,7.787,4.732,4.732,0,0,0,3.205,4.315,4.685,4.685,0,0,0,1.765.884,4.688,4.688,0,0,0-1.666-.557m4.15,24.483-5.676-9.786h-8.3v9.786h-4.871v-29.4h14.7a9.422,9.422,0,0,1,6.9,2.88A9.422,9.422,0,0,1,8.119,4.315,9.507,9.507,0,0,1,6.381,9.864a9.477,9.477,0,0,1-4.32,3.515L8.119,23.926Z" transform="translate(16.364 5.471)" fill="#222e46"/>
    </g>
    <g id="Group_106" data-name="Group 106" transform="translate(139.811 36.137)">
      <path id="Path_92" data-name="Path 92" d="M-1.818-1.118A22.243,22.243,0,0,1-17.859-7.792l3.621-3.178L-16.048-9.38l1.8-1.6A17.355,17.355,0,0,0-1.818-5.936a17.621,17.621,0,0,0,12.455-5.045l3.6,3.2A22.457,22.457,0,0,1-1.818-1.118" transform="translate(17.859 10.981)" fill="#fac112"/>
    </g>
  </g>
</svg>
