<svg xmlns="http://www.w3.org/2000/svg" width="16.356" height="16.352" viewBox="0 0 16.356 16.352">
  <path id="instagram-brands" d="M8.1,35.809A4.193,4.193,0,1,0,12.3,40,4.186,4.186,0,0,0,8.1,35.809Zm0,6.918A2.726,2.726,0,1,1,10.831,40,2.731,2.731,0,0,1,8.1,42.727Zm5.342-7.09a.978.978,0,1,1-.978-.978A.976.976,0,0,1,13.447,35.637Zm2.777.992A4.839,4.839,0,0,0,14.9,33.2a4.871,4.871,0,0,0-3.426-1.321c-1.35-.077-5.4-.077-6.747,0A4.864,4.864,0,0,0,1.3,33.2,4.855,4.855,0,0,0-.018,36.626c-.077,1.35-.077,5.4,0,6.747A4.839,4.839,0,0,0,1.3,46.8,4.877,4.877,0,0,0,4.73,48.12c1.35.077,5.4.077,6.747,0A4.839,4.839,0,0,0,14.9,46.8a4.871,4.871,0,0,0,1.321-3.426c.077-1.35.077-5.393,0-6.743Zm-1.744,8.192a2.76,2.76,0,0,1-1.554,1.554c-1.076.427-3.631.328-4.82.328s-3.747.095-4.82-.328A2.76,2.76,0,0,1,1.73,44.821C1.3,43.745,1.4,41.191,1.4,40s-.095-3.747.328-4.82a2.76,2.76,0,0,1,1.554-1.554C4.361,33.2,6.915,33.3,8.1,33.3s3.747-.095,4.82.328a2.76,2.76,0,0,1,1.554,1.554c.427,1.076.328,3.631.328,4.82S14.906,43.748,14.479,44.821Z" transform="translate(0.075 -31.825)" fill="#222e46"/>
</svg>
