<svg xmlns="http://www.w3.org/2000/svg" width="31.376" height="29.95" viewBox="0 0 31.376 29.95">
  <path id="Path_57" data-name="Path 57" d="M29.237,10.983H14.266a2.959,2.959,0,0,0-.16-4.016l-.819-.819a1.533,1.533,0,0,1-.451-1.09V1.713A.712.712,0,0,0,12.123,1h-2.8a.712.712,0,0,0-.713.713V5.058a1.532,1.532,0,0,1-.451,1.089l-.819.819a2.958,2.958,0,0,0-.16,4.016H2.139A2.142,2.142,0,0,0,0,13.121V17.4a2.142,2.142,0,0,0,2.139,2.139H21.393a.713.713,0,0,0,0-1.426H16.4v-5.7H29.237a.713.713,0,0,1,.713.713V17.4a.713.713,0,0,1-.713.713H24.245a.712.712,0,0,0-.713.713v.713a8.426,8.426,0,0,0,1.2,4.341l2.444,4.074a4.448,4.448,0,0,1,.632,2.283.713.713,0,1,0,1.426,0,5.855,5.855,0,0,0-.836-3.016l-2.444-4.074a7.007,7.007,0,0,1-1-3.607h4.279A2.142,2.142,0,0,0,31.376,17.4V13.123A2.142,2.142,0,0,0,29.237,10.983ZM8.583,10.346a1.54,1.54,0,0,1-.235-2.371l.82-.819a2.95,2.95,0,0,0,.868-2.1V2.426h1.373V5.058a2.946,2.946,0,0,0,.869,2.1l.819.819a1.542,1.542,0,0,1-.235,2.372l-.956.637H9.539Zm6.391,7.768H2.139a.713.713,0,0,1-.713-.713V13.123a.713.713,0,0,1,.713-.713H14.975Z" transform="translate(0 -1)" fill="#222e46"/>
</svg>
