<svg xmlns="http://www.w3.org/2000/svg" width="30.753" height="27.678" viewBox="0 0 30.753 27.678">
  <path id="Subtraction_2" data-name="Subtraction 2" d="M-2341.018-7448.322a.767.767,0,0,1-.728-.525l-1.364-4.088h-3.5l-1.362,4.088a.771.771,0,0,1-.73.525.744.744,0,0,1-.244-.042.77.77,0,0,1-.486-.972l1.537-4.612a.774.774,0,0,1,.732-.527h4.058l1.362-4.086a.771.771,0,0,1,.732-.524.781.781,0,0,1,.24.039.771.771,0,0,1,.488.972l-1.458,4.37,1.458,4.37a.77.77,0,0,1-.488.972A.73.73,0,0,1-2341.018-7448.322Zm-13.068,0h-3.075a.77.77,0,0,1-.769-.77.77.77,0,0,1,.769-.769h.767v-7.689h-3.075a.768.768,0,0,1-.768-.767.769.769,0,0,1,.768-.77h3.075v-7.687h-12.3a.77.77,0,0,1-.769-.769v-1.539a.771.771,0,0,1,.443-.694l13.07-6.15a.759.759,0,0,1,.326-.074.759.759,0,0,1,.327.074l13.07,6.15a.771.771,0,0,1,.443.694v1.539a.77.77,0,0,1-.769.769h-12.3v7.687h3.075a.77.77,0,0,1,.769.77.769.769,0,0,1-.769.767h-3.075v7.689h.769a.769.769,0,0,1,.767.769A.769.769,0,0,1-2354.086-7448.322Zm-1.539-26.241a.531.531,0,0,0-.225.051l-10.741,4.972a.53.53,0,0,0-.3.478v.323a.531.531,0,0,0,.529.531h21.483a.531.531,0,0,0,.529-.531v-.323a.53.53,0,0,0-.3-.478l-10.741-4.972A.526.526,0,0,0-2355.624-7474.563Zm-6.918,26.241a.773.773,0,0,1-.732-.525l-1.362-4.088h-3.5l-1.362,4.088a.772.772,0,0,1-.73.525.775.775,0,0,1-.244-.04.772.772,0,0,1-.486-.974l1.456-4.37-1.456-4.368a.773.773,0,0,1,.486-.974.788.788,0,0,1,.241-.039.772.772,0,0,1,.733.524l1.36,4.086h4.06a.77.77,0,0,1,.73.527l1.537,4.612a.771.771,0,0,1-.486.974A.773.773,0,0,1-2362.542-7448.322Z" transform="translate(2371 7476)" fill="#222e46"/>
</svg>
